<svg version="1.1" xmlns="http://www.w3.org/2000/svg" xmlns:xlink="http://www.w3.org/1999/xlink" width="539" height="210"><defs/><g><g><rect fill="#C0C0C0" stroke="none" x="334" y="414" width="204" height="146" transform="matrix(1 0 0 1 -317 -397)" fill-opacity="0.2"/></g><g><rect fill="#ffffff" stroke="none" x="327" y="407" width="204" height="146" transform="matrix(1 0 0 1 -317 -397)"/></g><g><path fill="none" stroke="#000000" paint-order="fill stroke markers" d=" M 10 10 L 214 10 L 214 156 L 10 156 L 10 10 Z Z" stroke-miterlimit="10" stroke-dasharray=""/></g><g><path fill="none" stroke="#000000" paint-order="fill stroke markers" d=" M 10 35 L 214 35" stroke-miterlimit="10" stroke-dasharray=""/></g><g><path fill="none" stroke="#000000" paint-order="fill stroke markers" d=" M 10 88 L 214 88" stroke-miterlimit="10" stroke-dasharray=""/></g><g><g><path fill="none" stroke="none"/><text fill="#000000" stroke="none" font-family="Arial" font-size="13px" font-style="normal" font-weight="bold" text-decoration="undefined" x="429.5" y="420.5" text-anchor="middle" dominant-baseline="central" transform="matrix(1 0 0 1 -317 -397)">Dispenser</text></g></g><g><g><path fill="none" stroke="none"/><text fill="#000000" stroke="none" font-family="Arial" font-size="13px" font-style="normal" font-weight="normal" text-decoration="undefined" x="332" y="443.5" text-anchor="start" dominant-baseline="central" transform="matrix(1 0 0 1 -317 -397)">-max: real</text></g></g><g><g><path fill="none" stroke="none"/><text fill="#000000" stroke="none" font-family="Arial" font-size="13px" font-style="normal" font-weight="normal" text-decoration="undefined" x="332" y="458.5" text-anchor="start" dominant-baseline="central" transform="matrix(1 0 0 1 -317 -397)">-dose: real</text></g></g><g><g><path fill="none" stroke="none"/><text fill="#000000" stroke="none" font-family="Arial" font-size="13px" font-style="normal" font-weight="normal" text-decoration="undefined" x="332" y="473.5" text-anchor="start" dominant-baseline="central" transform="matrix(1 0 0 1 -317 -397)">-act: real</text></g></g><g><g><path fill="none" stroke="none"/><text fill="#000000" stroke="none" font-family="Arial" font-size="13px" font-style="normal" font-weight="normal" text-decoration="undefined" x="332" y="496.5" text-anchor="start" dominant-baseline="central" transform="matrix(1 0 0 1 -317 -397)">+Dispenser(a: real, b: real)</text></g></g><g><g><path fill="none" stroke="none"/><text fill="#000000" stroke="none" font-family="Arial" font-size="13px" font-style="normal" font-weight="normal" text-decoration="undefined" x="332" y="511.5" text-anchor="start" dominant-baseline="central" transform="matrix(1 0 0 1 -317 -397)">+Push()</text></g></g><g><g><path fill="none" stroke="none"/><text fill="#000000" stroke="none" font-family="Arial" font-size="13px" font-style="normal" font-weight="normal" text-decoration="undefined" x="332" y="526.5" text-anchor="start" dominant-baseline="central" transform="matrix(1 0 0 1 -317 -397)">+Fill()</text></g></g><g><g><path fill="none" stroke="none"/><text fill="#000000" stroke="none" font-family="Arial" font-size="13px" font-style="normal" font-weight="normal" text-decoration="undefined" x="332" y="541.5" text-anchor="start" dominant-baseline="central" transform="matrix(1 0 0 1 -317 -397)">+Empty(): bool</text></g></g><g><path fill="#ffffff" stroke="none" paint-order="stroke fill markers" d=" M 269 51 L 518 51 L 528 61 L 528 90 L 269 90 L 269 51"/></g><g><path fill="none" stroke="#000000" paint-order="fill stroke markers" d=" M 269 51 L 518 51 L 528 61 L 528 90 L 269 90 L 269 51 L 269 51" stroke-miterlimit="10" stroke-dasharray=""/></g><g><path fill="none" stroke="#000000" paint-order="fill stroke markers" d=" M 518 51 L 518 61 L 528 61 L 518 51" stroke-miterlimit="10" stroke-dasharray=""/></g><g><g><path fill="none" stroke="none"/><text fill="#000000" stroke="none" font-family="Arial" font-size="13px" font-style="normal" font-weight="normal" text-decoration="undefined" x="591" y="453" text-anchor="start" dominant-baseline="text-before-edge" transform="matrix(1 0 0 1 -317 -397)">if not (a &gt; 0 and b &gt; 0) then error endif</text></g></g><g><g><path fill="none" stroke="none"/><text fill="#000000" stroke="none" font-family="Arial" font-size="13px" font-style="normal" font-weight="normal" text-decoration="undefined" x="591" y="468" text-anchor="start" dominant-baseline="text-before-edge" transform="matrix(1 0 0 1 -317 -397)">max, dose, act := a, b, 0.0</text></g></g><g><path fill="#ffffff" stroke="none" paint-order="stroke fill markers" d=" M 269 103 L 479 103 L 489 113 L 489 127 L 269 127 L 269 103"/></g><g><path fill="none" stroke="#000000" paint-order="fill stroke markers" d=" M 269 103 L 479 103 L 489 113 L 489 127 L 269 127 L 269 103 L 269 103" stroke-miterlimit="10" stroke-dasharray=""/></g><g><path fill="none" stroke="#000000" paint-order="fill stroke markers" d=" M 479 103 L 479 113 L 489 113 L 479 103" stroke-miterlimit="10" stroke-dasharray=""/></g><g><g><path fill="none" stroke="none"/><text fill="#000000" stroke="none" font-family="Arial" font-size="13px" font-style="normal" font-weight="normal" text-decoration="undefined" x="591" y="505" text-anchor="start" dominant-baseline="text-before-edge" transform="matrix(1 0 0 1 -317 -397)">act := MAX(act-dose, 0.0)</text></g></g><g><path fill="#ffffff" stroke="none" paint-order="stroke fill markers" d=" M 269 175 L 356 175 L 366 185 L 366 199 L 269 199 L 269 175"/></g><g><path fill="none" stroke="#000000" paint-order="fill stroke markers" d=" M 269 175 L 356 175 L 366 185 L 366 199 L 269 199 L 269 175 L 269 175" stroke-miterlimit="10" stroke-dasharray=""/></g><g><path fill="none" stroke="#000000" paint-order="fill stroke markers" d=" M 356 175 L 356 185 L 366 185 L 356 175" stroke-miterlimit="10" stroke-dasharray=""/></g><g><g><path fill="none" stroke="none"/><text fill="#000000" stroke="none" font-family="Arial" font-size="13px" font-style="normal" font-weight="normal" text-decoration="undefined" x="591" y="577" text-anchor="start" dominant-baseline="text-before-edge" transform="matrix(1 0 0 1 -317 -397)">return act = 0</text></g></g><g><path fill="#ffffff" stroke="none" paint-order="stroke fill markers" d=" M 269 138 L 352 138 L 362 148 L 362 162 L 269 162 L 269 138"/></g><g><path fill="none" stroke="#000000" paint-order="fill stroke markers" d=" M 269 138 L 352 138 L 362 148 L 362 162 L 269 162 L 269 138 L 269 138" stroke-miterlimit="10" stroke-dasharray=""/></g><g><path fill="none" stroke="#000000" paint-order="fill stroke markers" d=" M 352 138 L 352 148 L 362 148 L 352 138" stroke-miterlimit="10" stroke-dasharray=""/></g><g><g><path fill="none" stroke="none"/><text fill="#000000" stroke="none" font-family="Arial" font-size="13px" font-style="normal" font-weight="normal" text-decoration="undefined" x="591" y="540" text-anchor="start" dominant-baseline="text-before-edge" transform="matrix(1 0 0 1 -317 -397)">act := max</text></g></g><g><path fill="#ffffff" stroke="none" paint-order="stroke fill markers" d=" M 200 99.5 C 200 97.56700319999999 201.56700320000004 96 203.5 96 C 205.43299679999996 96 207 97.56700319999999 207 99.5 C 207 101.43299680000001 205.43299679999996 103 203.5 103 C 201.56700320000004 103 200 101.43299680000001 200 99.5 Z"/></g><g><path fill="none" stroke="#000000" paint-order="fill stroke markers" d=" M 200 99.5 C 200 97.56700319999999 201.56700320000004 96 203.5 96 C 205.43299679999996 96 207 97.56700319999999 207 99.5 C 207 101.43299680000001 205.43299679999996 103 203.5 103 C 201.56700320000004 103 200 101.43299680000001 200 99.5 Z" stroke-miterlimit="10" stroke-dasharray=""/></g><g><path fill="#ffffff" stroke="none" paint-order="stroke fill markers" d=" M 200 113.5 C 200 111.56700319999999 201.56700320000004 110 203.5 110 C 205.43299679999996 110 207 111.56700319999999 207 113.5 C 207 115.43299679999996 205.43299679999996 117 203.5 117 C 201.56700320000004 117 200 115.43299679999996 200 113.5 Z"/></g><g><path fill="none" stroke="#000000" paint-order="fill stroke markers" d=" M 200 113.5 C 200 111.56700319999999 201.56700320000004 110 203.5 110 C 205.43299679999996 110 207 111.56700319999999 207 113.5 C 207 115.43299679999996 205.43299679999996 117 203.5 117 C 201.56700320000004 117 200 115.43299679999996 200 113.5 Z" stroke-miterlimit="10" stroke-dasharray=""/></g><g><path fill="#ffffff" stroke="none" paint-order="stroke fill markers" d=" M 200 128.5 C 200 126.56700320000004 201.56700320000004 125 203.5 125 C 205.43299679999996 125 207 126.56700320000004 207 128.5 C 207 130.43299679999996 205.43299679999996 132 203.5 132 C 201.56700320000004 132 200 130.43299679999996 200 128.5 Z"/></g><g><path fill="none" stroke="#000000" paint-order="fill stroke markers" d=" M 200 128.5 C 200 126.56700320000004 201.56700320000004 125 203.5 125 C 205.43299679999996 125 207 126.56700320000004 207 128.5 C 207 130.43299679999996 205.43299679999996 132 203.5 132 C 201.56700320000004 132 200 130.43299679999996 200 128.5 Z" stroke-miterlimit="10" stroke-dasharray=""/></g><g><path fill="#ffffff" stroke="none" paint-order="stroke fill markers" d=" M 200 143.5 C 200 141.56700320000004 201.56700320000004 140 203.5 140 C 205.43299679999996 140 207 141.56700320000004 207 143.5 C 207 145.43299679999996 205.43299679999996 147 203.5 147 C 201.56700320000004 147 200 145.43299679999996 200 143.5 Z"/></g><g><path fill="none" stroke="#000000" paint-order="fill stroke markers" d=" M 200 143.5 C 200 141.56700320000004 201.56700320000004 140 203.5 140 C 205.43299679999996 140 207 141.56700320000004 207 143.5 C 207 145.43299679999996 205.43299679999996 147 203.5 147 C 201.56700320000004 147 200 145.43299679999996 200 143.5 Z" stroke-miterlimit="10" stroke-dasharray=""/></g><g><path fill="none" stroke="#000000" paint-order="fill stroke markers" d=" M 208 113 L 268 114" stroke-miterlimit="10" stroke-dasharray="3"/></g><g><path fill="none" stroke="#000000" paint-order="fill stroke markers" d=" M 208 98 L 268 90" stroke-miterlimit="10" stroke-dasharray="3"/></g><g><path fill="none" stroke="#000000" paint-order="fill stroke markers" d=" M 208 129 L 268 141" stroke-miterlimit="10" stroke-dasharray="3"/></g><g><path fill="none" stroke="#000000" paint-order="fill stroke markers" d=" M 208 145 L 284 174" stroke-miterlimit="10" stroke-dasharray="3"/></g></g></svg>